<svg width="30" height="30" viewBox="0 0 30 30" fill="none" xmlns="http://www.w3.org/2000/svg">
<path fill-rule="evenodd" clip-rule="evenodd" d="M3.75 5.625C3.75 5.12772 3.94754 4.65081 4.29917 4.29917C4.65081 3.94754 5.12772 3.75 5.625 3.75H24.375C24.8723 3.75 25.3492 3.94754 25.7008 4.29917C26.0525 4.65081 26.25 5.12772 26.25 5.625V8.2325C26.2499 8.89549 25.9864 9.53127 25.5175 10L18.75 16.7675V26.0475C18.75 26.2819 18.6901 26.5124 18.576 26.7172C18.4619 26.9219 18.2973 27.0941 18.0979 27.2173C17.8985 27.3406 17.671 27.4108 17.4368 27.4213C17.2026 27.4318 16.9696 27.3823 16.76 27.2775L12.1138 24.955C11.8542 24.8252 11.6359 24.6258 11.4834 24.3789C11.3308 24.1321 11.25 23.8477 11.25 23.5575V16.7675L4.4825 10C4.01363 9.53127 3.75014 8.89549 3.75 8.2325V5.625Z" fill="white" fill-opacity="0.39"/>
</svg>
